<?xml version="1.0" encoding="utf-8"?>
<!-- Generator: Adobe Illustrator 21.0.1, SVG Export Plug-In . SVG Version: 6.00 Build 0)  -->
<svg version="1.1" id="Layer_1" xmlns="http://www.w3.org/2000/svg" xmlns:xlink="http://www.w3.org/1999/xlink" x="0px" y="0px"
	 viewBox="0 0 1216.8 57.98" enable-background="new 0 0 1216.8 57.98" xml:space="preserve">
<g>
	
		<linearGradient id="SVGID_1_" gradientUnits="userSpaceOnUse" x1="5423.9014" y1="3.4485" x2="5843.1978" y2="729.691" gradientTransform="matrix(-1 0 0 -1 6582.7393 117.3764)">
		<stop  offset="0" style="stop-color:#A9D6A8"/>
		<stop  offset="0.0081" style="stop-color:#A5D5A9"/>
		<stop  offset="0.1073" style="stop-color:#7FCFB6"/>
		<stop  offset="0.2137" style="stop-color:#5DCAC0"/>
		<stop  offset="0.327" style="stop-color:#42C6C9"/>
		<stop  offset="0.4497" style="stop-color:#2DC2D0"/>
		<stop  offset="0.5864" style="stop-color:#1EC0D4"/>
		<stop  offset="0.7485" style="stop-color:#16BED7"/>
		<stop  offset="1" style="stop-color:#13BED8"/>
	</linearGradient>
	<path fill="url(#SVGID_1_)" d="M1091.769,12.992c0.802,0,1.604,0.011,2.406,0.023c1.706,0.023,3.483,0.057,5.236-0.04
		c0.638-0.052,1.031,0.011,1.175,0.149c0.103,0.097,0.223,0.384,0.216,1.191c-0.072,6.76-0.061,13.635-0.05,20.281l0.005,7.241
		l-0.011,1.627c-0.011,1.317-0.023,2.636,0.035,3.953c0.062,1.432,0.675,2.182,1.173,2.555c0.465,0.344,1.033,0.522,1.651,0.522
		c0.287,0,0.583-0.04,0.888-0.115c2.229-0.55,2.233-2.521,2.24-3.581l0.005-20.91c0.011-3.988,0.022-7.975-0.041-11.962
		c-0.01-0.653,0.094-0.808,0.127-0.836c0.027-0.029,0.194-0.12,0.843-0.109c1.919,0.063,3.888,0.046,5.773,0.034l2.263-0.017
		c1.078-0.005,1.851-0.263,2.373-0.796c0.458-0.464,0.681-1.106,0.671-1.908c-0.024-1.198-0.58-2.624-3.083-2.624
		c-7.941,0.023-15.881,0.017-23.822,0.006h-0.027c-2.487,0-3.049,1.409-3.083,2.601c-0.024,0.802,0.198,1.449,0.658,1.919
		C1089.913,12.728,1090.693,12.992,1091.769,12.992z"/>
	
		<linearGradient id="SVGID_2_" gradientUnits="userSpaceOnUse" x1="5358.335" y1="41.3034" x2="5777.6309" y2="767.546" gradientTransform="matrix(-1 0 0 -1 6582.7393 117.3764)">
		<stop  offset="0" style="stop-color:#A9D6A8"/>
		<stop  offset="0.0081" style="stop-color:#A5D5A9"/>
		<stop  offset="0.1073" style="stop-color:#7FCFB6"/>
		<stop  offset="0.2137" style="stop-color:#5DCAC0"/>
		<stop  offset="0.327" style="stop-color:#42C6C9"/>
		<stop  offset="0.4497" style="stop-color:#2DC2D0"/>
		<stop  offset="0.5864" style="stop-color:#1EC0D4"/>
		<stop  offset="0.7485" style="stop-color:#16BED7"/>
		<stop  offset="1" style="stop-color:#13BED8"/>
	</linearGradient>
	<path fill="url(#SVGID_2_)" d="M1209.89,27.56h-0.006c-3.402-0.114-7.018-0.109-11.337-0.005c-1.334,0.034-2.322,1.094-2.343,2.509
		c-0.027,1.329,0.641,2.222,1.993,2.641c0.701,0.218,1.369,0.263,2.027,0.263c0.489,0,0.941-0.029,1.474-0.029h0.011
		c2.624,0.011,4.364,0.017,4.789,0.533c0.431,0.521,0.092,2.286-0.424,4.961c-0.773,4.039-4.284,6.743-8.741,6.743h-0.039
		c-4.476-0.017-7.908-2.698-8.727-6.829c-0.396-1.999-0.429-4.01-0.457-6.141c-0.02-1.169-0.036-2.355-0.116-3.46
		c0.085-1.095,0.103-2.217,0.116-3.351c0.021-1.908,0.045-3.879,0.445-5.781c0.755-3.552,2.979-5.838,6.433-6.611
		c3.82-0.848,6.869,0.109,9.058,2.847c0.722,0.899,1.17,1.942,1.638,3.048c0.166,0.384,0.328,0.762,0.505,1.14
		c0.716,1.558,2.028,2.194,3.534,1.725c1.393-0.441,2.092-1.61,1.914-3.203c-0.053-0.458-0.161-0.94-0.345-1.513
		c-2.016-6.52-8.467-10.547-15.684-9.722c-7.139,0.785-12.136,5.557-13.028,12.444c-0.779,5.987-0.774,12.312,0.017,18.808
		c0.826,6.681,6.531,11.659,13.881,12.094c0.302,0.017,0.607,0.023,0.905,0.023c6.726,0,12.753-4.44,14.237-10.621
		c0.683-2.888,0.692-5.844,0.704-8.708l0.006-0.648C1212.341,28.849,1211.377,27.612,1209.89,27.56z"/>
	
		<linearGradient id="SVGID_3_" gradientUnits="userSpaceOnUse" x1="5504.8457" y1="-43.2848" x2="5924.1421" y2="682.9578" gradientTransform="matrix(-1 0 0 -1 6582.7393 117.3764)">
		<stop  offset="0" style="stop-color:#A9D6A8"/>
		<stop  offset="0.0081" style="stop-color:#A5D5A9"/>
		<stop  offset="0.1073" style="stop-color:#7FCFB6"/>
		<stop  offset="0.2137" style="stop-color:#5DCAC0"/>
		<stop  offset="0.327" style="stop-color:#42C6C9"/>
		<stop  offset="0.4497" style="stop-color:#2DC2D0"/>
		<stop  offset="0.5864" style="stop-color:#1EC0D4"/>
		<stop  offset="0.7485" style="stop-color:#16BED7"/>
		<stop  offset="1" style="stop-color:#13BED8"/>
	</linearGradient>
	<path fill="url(#SVGID_3_)" d="M990.258,46.987c3.708,2.521,7.602,3.787,11.653,3.787c2.757,0,5.586-0.59,8.473-1.759
		c4.784-1.948,7.55-6.634,7.051-11.933c-0.485-5.288-3.523-8.685-9.012-10.083c-1.418-0.361-2.868-0.561-4.267-0.756
		c-1.919-0.263-3.724-0.515-5.476-1.14c-2.883-1.02-4.229-2.836-4.235-5.7c-0.003-2.968,1.604-5.276,4.305-6.164
		c4.043-1.341,7.768-0.779,11.411,1.69c0.728,0.493,2.903,1.965,4.446-0.212c0.481-0.688,0.659-1.375,0.526-2.051
		c-0.218-1.106-1.227-1.868-1.959-2.338c-3.322-2.154-6.766-3.105-10.329-3.025c-1.227-0.155-2.56,0.092-3.845,0.326l-0.481,0.092
		c-5.218,0.939-9.287,5.213-9.669,10.163c-0.499,6.411,2.043,10.598,7.568,12.449c1.259,0.424,2.576,0.647,3.849,0.865l0.847,0.149
		c0.833,0.149,1.663,0.269,2.492,0.384c1.055,0.155,2.109,0.304,3.146,0.516c2.791,0.573,4.521,2.395,4.739,4.996
		c0.216,2.532-0.263,5.809-3.766,7.03c-5.252,1.833-10.031,1.169-14.264-1.948c-0.791-0.579-1.815-1.364-3.036-1.192
		c-0.654,0.103-1.227,0.498-1.709,1.163c-0.513,0.716-0.715,1.432-0.594,2.126C988.315,45.526,989.26,46.305,990.258,46.987z"/>
	
		<linearGradient id="SVGID_4_" gradientUnits="userSpaceOnUse" x1="5388.2944" y1="24.0063" x2="5807.5903" y2="750.2488" gradientTransform="matrix(-1 0 0 -1 6582.7393 117.3764)">
		<stop  offset="0" style="stop-color:#A9D6A8"/>
		<stop  offset="0.0081" style="stop-color:#A5D5A9"/>
		<stop  offset="0.1073" style="stop-color:#7FCFB6"/>
		<stop  offset="0.2137" style="stop-color:#5DCAC0"/>
		<stop  offset="0.327" style="stop-color:#42C6C9"/>
		<stop  offset="0.4497" style="stop-color:#2DC2D0"/>
		<stop  offset="0.5864" style="stop-color:#1EC0D4"/>
		<stop  offset="0.7485" style="stop-color:#16BED7"/>
		<stop  offset="1" style="stop-color:#13BED8"/>
	</linearGradient>
	<path fill="url(#SVGID_4_)" d="M1173.062,9.594c-0.349-1.524-1.586-2.372-3.087-2.166c-1.587,0.224-2.555,1.238-2.596,2.705
		c-0.016,0.762-0.029,1.518-0.029,2.28v26.399l-19.751-29.166c-0.775-1.134-1.852-2.704-3.977-2.079
		c-2.371,0.653-2.371,2.761-2.371,4.159c-0.007,11.515-0.007,23.03,0.005,34.545c0,0.619,0.029,1.432,0.245,2.223
		c0.345,1.266,1.318,1.993,2.629,1.993c0.105,0,0.213-0.006,0.315-0.011c1.514-0.126,2.466-0.997,2.62-2.389
		c0.081-0.727,0.081-1.461,0.081-2.337v-8.084c0-6.17,0-12.346,0.021-18.522l0.821,1.215c5.339,7.895,10.662,15.772,15.996,23.644
		c1.146,1.695,2.331,3.374,3.523,5.053c0.854,1.203,2.032,1.673,3.447,1.306c1.861-0.464,2.139-2.16,2.258-2.887
		c0.081-0.47,0.074-0.951,0.069-1.438v-0.32c0.005-11.309,0.005-22.618-0.006-33.933C1173.275,10.946,1173.206,10.23,1173.062,9.594
		z"/>
	
		<linearGradient id="SVGID_5_" gradientUnits="userSpaceOnUse" x1="5657.7476" y1="-131.5627" x2="6077.0439" y2="594.6799" gradientTransform="matrix(-1 0 0 -1 6582.7393 117.3764)">
		<stop  offset="0" style="stop-color:#A9D6A8"/>
		<stop  offset="0.0081" style="stop-color:#A5D5A9"/>
		<stop  offset="0.1073" style="stop-color:#7FCFB6"/>
		<stop  offset="0.2137" style="stop-color:#5DCAC0"/>
		<stop  offset="0.327" style="stop-color:#42C6C9"/>
		<stop  offset="0.4497" style="stop-color:#2DC2D0"/>
		<stop  offset="0.5864" style="stop-color:#1EC0D4"/>
		<stop  offset="0.7485" style="stop-color:#16BED7"/>
		<stop  offset="1" style="stop-color:#13BED8"/>
	</linearGradient>
	<path fill="url(#SVGID_5_)" d="M781.992,11.748c-0.005,11.515-0.005,23.03,0.007,34.545c0,0.67,0.027,1.467,0.247,2.223
		c0.342,1.266,1.317,1.993,2.628,1.993c0.103,0,0.213-0.006,0.316-0.012c1.514-0.126,2.463-0.997,2.618-2.389
		c0.081-0.727,0.081-1.467,0.081-2.337v-8.083c0-6.171,0.005-12.34,0.022-18.516l16.814,24.852c1.147,1.695,2.334,3.374,3.523,5.053
		c0.843,1.203,2.045,1.661,3.449,1.3c1.869-0.458,2.137-2.16,2.253-2.876c0.085-0.498,0.079-0.985,0.073-1.455v-8.794
		c0-8.478,0-16.969-0.005-25.448c0-0.825-0.068-1.541-0.218-2.182c-0.344-1.536-1.57-2.395-3.081-2.172
		c-1.594,0.23-2.563,1.238-2.597,2.704c-0.016,0.762-0.027,1.518-0.027,2.28l-0.006,26.388l-6.532-9.642
		c-4.382-6.474-8.764-12.948-13.21-19.502c-0.768-1.139-1.8-2.693-3.993-2.097C781.992,8.242,781.992,10.35,781.992,11.748z"/>
	
		<linearGradient id="SVGID_6_" gradientUnits="userSpaceOnUse" x1="5532.6841" y1="-59.3572" x2="5951.9805" y2="666.8854" gradientTransform="matrix(-1 0 0 -1 6582.7393 117.3764)">
		<stop  offset="0" style="stop-color:#A9D6A8"/>
		<stop  offset="0.0081" style="stop-color:#A5D5A9"/>
		<stop  offset="0.1073" style="stop-color:#7FCFB6"/>
		<stop  offset="0.2137" style="stop-color:#5DCAC0"/>
		<stop  offset="0.327" style="stop-color:#42C6C9"/>
		<stop  offset="0.4497" style="stop-color:#2DC2D0"/>
		<stop  offset="0.5864" style="stop-color:#1EC0D4"/>
		<stop  offset="0.7485" style="stop-color:#16BED7"/>
		<stop  offset="1" style="stop-color:#13BED8"/>
	</linearGradient>
	<path fill="url(#SVGID_6_)" d="M974.824,22.639l-0.005,16.15c-2.905-4.251-5.794-8.513-8.68-12.781l-4.567-6.749
		c-2.268-3.357-4.543-6.72-6.827-10.066c-0.379-0.55-1.572-2.228-3.714-1.621c-1.959,0.544-2.182,2.269-2.319,3.294
		c-0.035,0.263-0.024,0.527-0.006,0.796c0.006,0.109,0.013,0.218,0.013,0.326l0.003,34.145c0.006,0.825,0.069,1.535,0.195,2.171
		c0.27,1.352,1.306,2.182,2.716,2.182c0.036,0,0.063,0,0.097,0c1.622-0.04,2.669-0.968,2.809-2.463
		c0.074-0.727,0.074-1.455,0.074-2.332l0.006-26.525c2.818,4.159,5.636,8.319,8.447,12.483c3.72,5.494,7.438,10.988,11.185,16.5
		c0.692,1.02,1.593,2.348,3.202,2.348c0.328,0,0.683-0.057,1.067-0.177c2.223-0.699,2.223-2.71,2.223-4.045
		c0.013-8.376,0.013-16.752,0.006-25.122V11.107c0-1.358-0.316-2.326-0.957-2.951c-0.503-0.481-1.168-0.728-1.993-0.728
		c-0.042,0-0.087,0-0.134,0c-1.083,0.029-2.898,0.539-2.865,3.61C974.835,14.905,974.83,18.772,974.824,22.639z"/>
	
		<linearGradient id="SVGID_7_" gradientUnits="userSpaceOnUse" x1="5410.4253" y1="11.229" x2="5829.7212" y2="737.4716" gradientTransform="matrix(-1 0 0 -1 6582.7393 117.3764)">
		<stop  offset="0" style="stop-color:#A9D6A8"/>
		<stop  offset="0.0081" style="stop-color:#A5D5A9"/>
		<stop  offset="0.1073" style="stop-color:#7FCFB6"/>
		<stop  offset="0.2137" style="stop-color:#5DCAC0"/>
		<stop  offset="0.327" style="stop-color:#42C6C9"/>
		<stop  offset="0.4497" style="stop-color:#2DC2D0"/>
		<stop  offset="0.5864" style="stop-color:#1EC0D4"/>
		<stop  offset="0.7485" style="stop-color:#16BED7"/>
		<stop  offset="1" style="stop-color:#13BED8"/>
	</linearGradient>
	<path fill="url(#SVGID_7_)" d="M1127.857,7.423c-0.797,0.005-1.57,0.206-2.098,0.71c-0.629,0.602-0.949,1.541-0.955,2.796
		c-0.024,11.985-0.048,23.97-0.029,35.96c0.011,3.129,1.851,3.598,2.944,3.604c0.888,0,1.598-0.258,2.102-0.762
		c0.792-0.791,0.891-1.988,0.884-2.945c-0.029-4.869-0.024-9.745-0.018-14.62l0.005-3.248l-0.005-4.766
		c0-4.371-0.006-8.737,0.024-13.114C1130.72,8.139,1129.161,7.474,1127.857,7.423z"/>
	
		<linearGradient id="SVGID_8_" gradientUnits="userSpaceOnUse" x1="5624.0166" y1="-112.0881" x2="6043.313" y2="614.1545" gradientTransform="matrix(-1 0 0 -1 6582.7393 117.3764)">
		<stop  offset="0" style="stop-color:#A9D6A8"/>
		<stop  offset="0.0081" style="stop-color:#A5D5A9"/>
		<stop  offset="0.1073" style="stop-color:#7FCFB6"/>
		<stop  offset="0.2137" style="stop-color:#5DCAC0"/>
		<stop  offset="0.327" style="stop-color:#42C6C9"/>
		<stop  offset="0.4497" style="stop-color:#2DC2D0"/>
		<stop  offset="0.5864" style="stop-color:#1EC0D4"/>
		<stop  offset="0.7485" style="stop-color:#16BED7"/>
		<stop  offset="1" style="stop-color:#13BED8"/>
	</linearGradient>
	<path fill="url(#SVGID_8_)" d="M840.193,50.333v0.366c-0.005,0.516-0.005,1.031,0.034,1.547c0.139,1.564,1.147,2.527,2.703,2.573
		h0.103c1.446,0,2.466-0.905,2.734-2.435c0.081-0.464,0.068-0.917,0.058-1.346l-0.006-43.804l0.011-0.407
		c0.011-0.43,0.029-0.922-0.085-1.404c-0.368-1.524-1.479-2.309-2.968-2.234c-1.461,0.103-2.389,0.997-2.537,2.452
		c-0.058,0.504-0.052,1.008-0.052,1.518l0.005,0.413C840.188,21.825,840.188,36.079,840.193,50.333z"/>
	
		<linearGradient id="SVGID_9_" gradientUnits="userSpaceOnUse" x1="5562.8457" y1="-76.7711" x2="5982.1421" y2="649.4714" gradientTransform="matrix(-1 0 0 -1 6582.7393 117.3764)">
		<stop  offset="0" style="stop-color:#A9D6A8"/>
		<stop  offset="0.0081" style="stop-color:#A5D5A9"/>
		<stop  offset="0.1073" style="stop-color:#7FCFB6"/>
		<stop  offset="0.2137" style="stop-color:#5DCAC0"/>
		<stop  offset="0.327" style="stop-color:#42C6C9"/>
		<stop  offset="0.4497" style="stop-color:#2DC2D0"/>
		<stop  offset="0.5864" style="stop-color:#1EC0D4"/>
		<stop  offset="0.7485" style="stop-color:#16BED7"/>
		<stop  offset="1" style="stop-color:#13BED8"/>
	</linearGradient>
	<path fill="url(#SVGID_9_)" d="M927.146,7.498c-4.312-0.75-8.631,0.269-11.966,2.761c-3.072,2.297-4.997,5.603-5.421,9.298
		c-0.418,3.621-0.376,7.27-0.337,10.805c0.018,1.415,0.029,2.83,0.018,4.251c-0.023,2.205,0.211,4.068,0.697,5.694
		c1.816,5.981,6.093,9.441,12.713,10.272c0.602,0.074,1.204,0.115,1.799,0.115c6.709,0,13.052-4.612,14.358-10.748
		c0.721-3.409,0.692-6.852,0.659-10.186l-0.005-0.802c0-0.687,0.01-1.375,0.021-2.062c0.018-1.49,0.04-3.031-0.041-4.555
		C939.178,13.966,934.857,8.832,927.146,7.498z M933.289,38.131c-0.521,4.039-4.09,7-8.496,7.04c-0.045,0-0.087,0-0.126,0
		c-4.6,0-8.062-2.646-8.835-6.771c-0.039-0.207-0.085-0.418-0.137-0.631c-0.097-0.441-0.194-0.859-0.2-1.254
		c-0.034-1.828-0.028-3.655-0.024-5.477l0.006-2.126c-0.006-0.579-0.022-1.157-0.034-1.742c-0.056-2.549-0.119-5.19,0.384-7.723
		c0.784-3.947,4.371-6.686,8.75-6.686h0.095c4.411,0.04,8.112,3.008,8.605,6.915C934.055,25.853,934.062,32.058,933.289,38.131z"/>
	
		<linearGradient id="SVGID_10_" gradientUnits="userSpaceOnUse" x1="5892.1387" y1="-266.8885" x2="6311.4351" y2="459.354" gradientTransform="matrix(-1 0 0 -1 6582.7393 117.3764)">
		<stop  offset="0" style="stop-color:#A9D6A8"/>
		<stop  offset="0.0081" style="stop-color:#A5D5A9"/>
		<stop  offset="0.1073" style="stop-color:#7FCFB6"/>
		<stop  offset="0.2137" style="stop-color:#5DCAC0"/>
		<stop  offset="0.327" style="stop-color:#42C6C9"/>
		<stop  offset="0.4497" style="stop-color:#2DC2D0"/>
		<stop  offset="0.5864" style="stop-color:#1EC0D4"/>
		<stop  offset="0.7485" style="stop-color:#16BED7"/>
		<stop  offset="1" style="stop-color:#13BED8"/>
	</linearGradient>
	<path fill="url(#SVGID_10_)" d="M485.191,3.195c-1.369,0.126-2.234,0.934-2.44,2.28c-0.079,0.533-0.074,1.06-0.068,1.57
		l0.022,44.801c0.005,0.945,0.286,1.725,0.818,2.24c0.483,0.475,1.152,0.721,1.948,0.721c0.018,0,0.065,0,0.065,0
		c1.711-0.023,2.75-1.146,2.771-3.013l0.007-1.043c0.006-14.529,0.006-29.057,0-43.586l0.006-0.372
		c0.011-0.527,0.028-1.117-0.161-1.69C487.718,3.751,486.561,2.989,485.191,3.195z"/>
	
		<linearGradient id="SVGID_11_" gradientUnits="userSpaceOnUse" x1="6058.9951" y1="-363.2231" x2="6478.2915" y2="363.0195" gradientTransform="matrix(-1 0 0 -1 6582.7393 117.3764)">
		<stop  offset="0" style="stop-color:#A9D6A8"/>
		<stop  offset="0.0081" style="stop-color:#A5D5A9"/>
		<stop  offset="0.1073" style="stop-color:#7FCFB6"/>
		<stop  offset="0.2137" style="stop-color:#5DCAC0"/>
		<stop  offset="0.327" style="stop-color:#42C6C9"/>
		<stop  offset="0.4497" style="stop-color:#2DC2D0"/>
		<stop  offset="0.5864" style="stop-color:#1EC0D4"/>
		<stop  offset="0.7485" style="stop-color:#16BED7"/>
		<stop  offset="1" style="stop-color:#13BED8"/>
	</linearGradient>
	<path fill="url(#SVGID_11_)" d="M274.05,7.543c-1.364,0.458-2.05,1.49-2.05,3.065l-0.013,4.147
		c-0.011,3.558-0.023,7.116,0.016,10.667c0.006,0.556-0.079,0.659-0.073,0.665c0,0-0.081,0.12-0.654,0.08
		c-5.757-0.069-11.377-0.069-16.677,0c-0.429,0.012-0.613-0.08-0.613-0.08c-0.011-0.012-0.085-0.115-0.079-0.688
		c0.028-2.589,0.028-5.179,0.021-7.762c-0.005-2.212-0.005-4.429,0.013-6.64c0.034-3.065-1.806-3.558-2.905-3.581
		c-0.75-0.006-1.523,0.218-2.029,0.704c-0.625,0.602-0.944,1.53-0.967,2.836c-0.024,1.089-0.018,2.183-0.011,3.277v32.116
		c0,1.667,0.353,2.807,1.088,3.495c0.517,0.481,1.14,0.676,1.987,0.642c2.844-0.206,2.837-2.59,2.831-4.01
		c-0.007-1.627,0-3.254,0.006-4.881c0.006-3.036,0.011-6.079-0.047-9.12c-0.016-0.693,0.074-0.888,0.126-0.94
		c0.035-0.034,0.229-0.12,0.901-0.132c5.328,0.092,10.729,0.092,16.068,0c0.739,0.006,0.867,0.097,0.894,0.126
		c0.04,0.046,0.144,0.223,0.126,0.939c-0.074,4.434-0.068,9.287,0.018,14.827c0.022,1.295,0.613,2.389,1.58,2.922
		c0.408,0.224,0.843,0.332,1.285,0.332c0.521,0,1.049-0.149,1.542-0.447c1.397-0.848,1.397-2.234,1.397-3.351l0.005-22.114
		c0-4.423,0.006-8.84-0.005-13.268l0.005-0.372c0.011-0.819,0.036-1.845-0.802-2.664C276.124,7.44,275.109,7.171,274.05,7.543z"/>
	
		<linearGradient id="SVGID_12_" gradientUnits="userSpaceOnUse" x1="5981.6206" y1="-318.5508" x2="6400.917" y2="407.6917" gradientTransform="matrix(-1 0 0 -1 6582.7393 117.3764)">
		<stop  offset="0" style="stop-color:#A9D6A8"/>
		<stop  offset="0.0081" style="stop-color:#A5D5A9"/>
		<stop  offset="0.1073" style="stop-color:#7FCFB6"/>
		<stop  offset="0.2137" style="stop-color:#5DCAC0"/>
		<stop  offset="0.327" style="stop-color:#42C6C9"/>
		<stop  offset="0.4497" style="stop-color:#2DC2D0"/>
		<stop  offset="0.5864" style="stop-color:#1EC0D4"/>
		<stop  offset="0.7485" style="stop-color:#16BED7"/>
		<stop  offset="1" style="stop-color:#13BED8"/>
	</linearGradient>
	<path fill="url(#SVGID_12_)" d="M389.735,45.761l-4.915-13.119c-2.792-7.448-5.581-14.896-8.359-22.349
		c-0.315-0.848-1.049-2.83-3.152-2.876h-0.056c-2.177,0-2.905,1.988-3.26,2.951c-1.123,3.036-2.279,6.067-3.438,9.097
		c-0.705,1.85-1.414,3.701-2.114,5.557l-1.076,2.864c-2.251,5.976-4.503,11.951-6.703,17.943c-0.366,0.997-0.676,2.143-0.194,3.122
		c0.308,0.636,0.904,1.089,1.764,1.358c0.377,0.12,0.721,0.172,1.025,0.172c1.856,0,2.508-1.879,2.779-2.653
		c0.315-0.905,0.652-1.799,0.991-2.699c0.407-1.077,0.807-2.154,1.18-3.237c0.276-0.796,0.509-0.997,1.238-0.997h0.079
		c5.174,0.08,10.462,0.057,15.47,0.017c0,0,0.023,0,0.045,0c0.721,0,0.883,0.132,1.105,0.825c0.562,1.736,1.248,3.448,1.913,5.104
		c0.265,0.659,0.528,1.318,0.786,1.982c0.508,1.295,1.643,1.879,3.139,1.558c1.386-0.286,2.171-1.3,2.211-2.864l-0.132-0.631
		C389.971,46.529,389.872,46.134,389.735,45.761z M366.528,35.633c2.205-5.999,4.382-11.934,6.696-18.247l6.68,18.247H366.528z"/>
	
		<linearGradient id="SVGID_13_" gradientUnits="userSpaceOnUse" x1="6139.8604" y1="-409.9105" x2="6559.1567" y2="316.332" gradientTransform="matrix(-1 0 0 -1 6582.7393 117.3764)">
		<stop  offset="0" style="stop-color:#A9D6A8"/>
		<stop  offset="0.0081" style="stop-color:#A5D5A9"/>
		<stop  offset="0.1073" style="stop-color:#7FCFB6"/>
		<stop  offset="0.2137" style="stop-color:#5DCAC0"/>
		<stop  offset="0.327" style="stop-color:#42C6C9"/>
		<stop  offset="0.4497" style="stop-color:#2DC2D0"/>
		<stop  offset="0.5864" style="stop-color:#1EC0D4"/>
		<stop  offset="0.7485" style="stop-color:#16BED7"/>
		<stop  offset="1" style="stop-color:#13BED8"/>
	</linearGradient>
	<path fill="url(#SVGID_13_)" d="M169.193,8.191c-0.503-0.51-1.198-0.767-2.062-0.767h-0.079c-1.314,0.023-2.878,0.67-2.865,3.638
		c0.005,1.621,0,3.248-0.007,4.875c-0.018,2.991-0.027,6.084,0.057,9.132c0.022,0.728-0.09,0.916-0.137,0.968
		c-0.069,0.069-0.281,0.16-1.049,0.137c-5.086-0.092-10.431-0.092-15.864,0c-0.771-0.011-0.894-0.074-0.949-0.126
		c-0.036-0.034-0.144-0.201-0.128-0.882c0.058-2.727,0.052-5.454,0.045-8.181c-0.005-1.937-0.011-3.879,0.006-5.815
		c0.018-2.469-0.98-3.735-2.968-3.752c0,0-0.016,0-0.039,0c-0.813,0-1.478,0.247-1.972,0.734c-0.613,0.613-0.928,1.57-0.928,2.864
		c-0.021,11.934-0.045,23.861-0.021,35.783c0.003,0.882,0.103,2.143,0.955,2.962c0.492,0.475,1.156,0.71,1.977,0.71
		c0.057,0,0.108,0,0.166,0c2.829-0.109,2.823-2.618,2.818-3.827c-0.007-1.782-0.007-3.569,0-5.351
		c0.005-3.019,0.011-6.038-0.041-9.052c-0.011-0.625,0.086-0.734,0.092-0.739c0.011-0.011,0.155-0.08,0.762-0.092
		c4.9,0.074,10.433,0.144,15.87-0.029c0.767-0.006,1.099,0.092,1.209,0.195c0.189,0.189,0.2,0.813,0.189,1.335
		c-0.076,3.781-0.045,7.625-0.011,11.338l0.022,3.288c0.007,1.81,1.11,2.933,2.876,2.933h0.016c1.732,0,2.831-1.117,2.878-2.916
		l0.011-0.401c0.01-0.556,0.029-1.111,0.029-1.667V12.574l-0.007-0.493c0-0.304-0.006-0.613,0.007-0.917
		C170.099,9.8,169.818,8.832,169.193,8.191z"/>
	
		<linearGradient id="SVGID_14_" gradientUnits="userSpaceOnUse" x1="6243.2666" y1="-469.6124" x2="6662.563" y2="256.6302" gradientTransform="matrix(-1 0 0 -1 6582.7393 117.3764)">
		<stop  offset="0" style="stop-color:#A9D6A8"/>
		<stop  offset="0.0081" style="stop-color:#A5D5A9"/>
		<stop  offset="0.1073" style="stop-color:#7FCFB6"/>
		<stop  offset="0.2137" style="stop-color:#5DCAC0"/>
		<stop  offset="0.327" style="stop-color:#42C6C9"/>
		<stop  offset="0.4497" style="stop-color:#2DC2D0"/>
		<stop  offset="0.5864" style="stop-color:#1EC0D4"/>
		<stop  offset="0.7485" style="stop-color:#16BED7"/>
		<stop  offset="1" style="stop-color:#13BED8"/>
	</linearGradient>
	<path fill="url(#SVGID_14_)" d="M20.663,7.675c-2.784-0.023-5.578-0.011-8.341-0.011L8.749,7.669
		c-3.554,0.006-4.229,0.687-4.246,4.28c-0.023,4.062-0.018,8.123-0.018,12.185l-0.011,9.854c-0.005,4.159-0.005,8.313,0.006,12.472
		c0.005,1.18,0.016,3.942,2.91,4.016h0.103c0.847,0,1.523-0.24,2.011-0.722c0.801-0.785,0.899-1.988,0.894-3.168
		c-0.011-1.627-0.006-3.254,0-4.887c0.005-2.412,0.016-4.824-0.042-7.241c-0.016-0.716,0.076-0.917,0.132-0.968
		c0.036-0.034,0.2-0.183,0.878-0.126c3.477,0.126,6.896,0.075,9.492,0.017c8.055-0.184,13.401-5.534,13.304-13.309
		C34.065,12.711,28.639,7.727,20.663,7.675z M28.167,21.258v0.006c-0.16,3.718-2.807,6.417-6.444,6.56
		c-2.097,0.086-4.25,0.086-6.325,0.063c-1.506,0-3.031-0.012-4.538,0.017c-0.295-0.006-0.428-0.04-0.439-0.04
		c-0.007-0.017-0.058-0.126-0.052-0.533c0.039-1.656,0.034-3.306,0.023-4.967l-0.005-8.977c-0.006-0.149-0.013-0.378-0.058-0.378
		c0,0,0.063-0.023,0.292-0.023c1.501,0.057,3.031,0.046,4.519,0.011c2.321-0.034,4.745-0.08,7.094,0.247
		C27.396,13.948,28.313,17.993,28.167,21.258z"/>
	
		<linearGradient id="SVGID_15_" gradientUnits="userSpaceOnUse" x1="5455.4033" y1="-14.7391" x2="5874.6997" y2="711.5035" gradientTransform="matrix(-1 0 0 -1 6582.7393 117.3764)">
		<stop  offset="0" style="stop-color:#A9D6A8"/>
		<stop  offset="0.0081" style="stop-color:#A5D5A9"/>
		<stop  offset="0.1073" style="stop-color:#7FCFB6"/>
		<stop  offset="0.2137" style="stop-color:#5DCAC0"/>
		<stop  offset="0.327" style="stop-color:#42C6C9"/>
		<stop  offset="0.4497" style="stop-color:#2DC2D0"/>
		<stop  offset="0.5864" style="stop-color:#1EC0D4"/>
		<stop  offset="0.7485" style="stop-color:#16BED7"/>
		<stop  offset="1" style="stop-color:#13BED8"/>
	</linearGradient>
	<path fill="url(#SVGID_15_)" d="M1089.014,44.908h-0.006c-0.589-0.057-1.187-0.063-1.913-0.057l-4.247-0.012
		c-3.602-0.017-7.326-0.023-10.989,0.052c-0.675-0.012-0.984-0.086-1.075-0.172c-0.132-0.132-0.195-0.51-0.19-1.123
		c0.051-7.866,0.045-15.732,0.042-23.603l-0.007-8.21c0.007-0.653,0.007-1.329-0.087-2.017c-0.188-1.352-1.214-2.251-2.669-2.355
		c-1.398-0.12-2.618,0.728-2.909,2.097c-0.19,0.853-0.219,1.753-0.226,2.601c-0.01,3.964-0.01,7.929-0.003,11.899l0.034,22.853
		c0,1.18,0.286,2.04,0.875,2.629c0.55,0.545,1.348,0.825,2.377,0.825h0.019c6.054-0.023,12.111-0.028,18.167-0.011h2.594
		c1.799,0,2.916-0.894,3.06-2.458C1091.934,47.056,1091.81,45.188,1089.014,44.908z"/>
	
		<linearGradient id="SVGID_16_" gradientUnits="userSpaceOnUse" x1="6217.335" y1="-454.6406" x2="6636.6313" y2="271.6019" gradientTransform="matrix(-1 0 0 -1 6582.7393 117.3764)">
		<stop  offset="0" style="stop-color:#A9D6A8"/>
		<stop  offset="0.0081" style="stop-color:#A5D5A9"/>
		<stop  offset="0.1073" style="stop-color:#7FCFB6"/>
		<stop  offset="0.2137" style="stop-color:#5DCAC0"/>
		<stop  offset="0.327" style="stop-color:#42C6C9"/>
		<stop  offset="0.4497" style="stop-color:#2DC2D0"/>
		<stop  offset="0.5864" style="stop-color:#1EC0D4"/>
		<stop  offset="0.7485" style="stop-color:#16BED7"/>
		<stop  offset="1" style="stop-color:#13BED8"/>
	</linearGradient>
	<path fill="url(#SVGID_16_)" d="M58.645,27.022c-1.443-0.367-2.921-0.567-4.354-0.767c-1.953-0.27-3.796-0.527-5.591-1.152
		c-2.881-1.003-4.227-2.813-4.238-5.689c-0.013-2.979,1.591-5.288,4.279-6.181c3.919-1.306,7.707-0.773,11.252,1.57
		c0.946,0.625,2.056,1.266,3.146,1.008c0.647-0.149,1.191-0.59,1.604-1.3c1.356-2.297-0.762-3.655-1.903-4.383
		c-3.11-1.994-6.314-2.83-10.129-2.841c-1.093-0.212-2.326,0.046-3.622,0.309L48.34,7.744c-5.173,0.997-9.166,5.339-9.493,10.329
		c-0.412,6.291,2.137,10.416,7.568,12.249c1.272,0.429,2.602,0.659,3.89,0.882l0.809,0.138c0.807,0.143,1.622,0.258,2.44,0.372
		c1.072,0.155,2.142,0.303,3.197,0.521c2.795,0.573,4.526,2.383,4.75,4.984c0.326,3.724-1.004,6.113-3.941,7.099
		c-5.278,1.764-10.055,1.054-14.227-2.114c-0.823-0.625-1.85-1.266-2.876-1.083c-0.665,0.098-1.243,0.481-1.724,1.146
		c-0.515,0.71-0.717,1.432-0.595,2.131c0.2,1.135,1.202,1.942,1.948,2.458c3.849,2.624,7.831,3.936,11.905,3.936
		c3.065,0,6.188-0.745,9.343-2.228c4.177-1.971,6.693-6.777,6.102-11.687C66.815,31.731,63.78,28.322,58.645,27.022z"/>
	
		<linearGradient id="SVGID_17_" gradientUnits="userSpaceOnUse" x1="5590.3862" y1="-92.6715" x2="6009.6821" y2="633.571" gradientTransform="matrix(-1 0 0 -1 6582.7393 117.3764)">
		<stop  offset="0" style="stop-color:#A9D6A8"/>
		<stop  offset="0.0081" style="stop-color:#A5D5A9"/>
		<stop  offset="0.1073" style="stop-color:#7FCFB6"/>
		<stop  offset="0.2137" style="stop-color:#5DCAC0"/>
		<stop  offset="0.327" style="stop-color:#42C6C9"/>
		<stop  offset="0.4497" style="stop-color:#2DC2D0"/>
		<stop  offset="0.5864" style="stop-color:#1EC0D4"/>
		<stop  offset="0.7485" style="stop-color:#16BED7"/>
		<stop  offset="1" style="stop-color:#13BED8"/>
	</linearGradient>
	<path fill="url(#SVGID_17_)" d="M900.485,36.228h-0.007c-1.703-0.556-3.121,0.195-3.786,1.999
		c-0.126,0.344-0.281,0.676-0.436,1.008c-0.098,0.212-0.195,0.418-0.286,0.63c-1.685,3.925-4.916,5.712-9.493,5.271
		c-3.689-0.384-6.682-3.283-7.276-7.053c-0.883-5.603-0.62-11.355-0.247-17.25c0.121-1.856,0.786-3.535,1.982-4.996
		c1.948-2.389,5.328-3.529,8.594-2.985c1.856,0.326,5.213,1.518,6.782,5.935c0.534,1.473,1.33,3.696,4.074,2.951
		c0.733-0.201,1.294-0.647,1.622-1.295c0.486-0.974,0.413-2.326-0.213-3.913c-2.05-5.202-5.867-8.261-11.33-9.086
		c-4.453-0.653-8.68,0.372-11.993,2.922c-3.023,2.32-4.919,5.609-5.339,9.258c-0.25,2.194-0.257,4.4-0.257,6.525
		c0,0.923,0,1.84-0.024,2.779c0,0.727-0.003,1.461-0.01,2.188c-0.018,1.604-0.029,3.214,0.023,4.818
		c0.207,6.13,2.818,10.495,7.77,12.97c2.463,1.238,4.948,1.856,7.402,1.856c2.847,0,5.647-0.836,8.299-2.509
		c3.038-1.908,5.065-4.766,5.868-8.261C902.638,38.095,902.009,36.726,900.485,36.228z"/>
	
		<linearGradient id="SVGID_18_" gradientUnits="userSpaceOnUse" x1="5721.7363" y1="-168.5065" x2="6141.0322" y2="557.7361" gradientTransform="matrix(-1 0 0 -1 6582.7393 117.3764)">
		<stop  offset="0" style="stop-color:#A9D6A8"/>
		<stop  offset="0.0081" style="stop-color:#A5D5A9"/>
		<stop  offset="0.1073" style="stop-color:#7FCFB6"/>
		<stop  offset="0.2137" style="stop-color:#5DCAC0"/>
		<stop  offset="0.327" style="stop-color:#42C6C9"/>
		<stop  offset="0.4497" style="stop-color:#2DC2D0"/>
		<stop  offset="0.5864" style="stop-color:#1EC0D4"/>
		<stop  offset="0.7485" style="stop-color:#16BED7"/>
		<stop  offset="1" style="stop-color:#13BED8"/>
	</linearGradient>
	<path fill="url(#SVGID_18_)" d="M694.585,13.009c0.791,0,1.582,0.011,2.373,0.023c1.782,0.023,3.644,0.052,5.465-0.035
		c0.784-0.028,0.986,0.058,1.072,0.144c0.092,0.092,0.2,0.355,0.195,1.117c-0.069,9.292-0.052,18.739-0.034,27.871l0.003,4.492
		c-0.01,0.653-0.021,1.392,0.299,2.172c0.328,0.79,1.06,1.73,2.745,1.73c0,0,0.027,0,0.058,0c1.214-0.029,2.124-0.648,2.566-1.765
		c0.297-0.756,0.291-1.484,0.291-2.274c0.011-4.268,0.011-8.542,0.011-12.816l0.013-7.688c0.018-3.856,0.027-7.837-0.058-11.756
		c-0.018-0.762,0.11-1.003,0.182-1.077c0.126-0.126,0.523-0.178,1.117-0.149c1.961,0.086,3.943,0.063,5.855,0.035l1.989-0.023
		c1.004-0.006,1.772-0.281,2.276-0.82c0.469-0.498,0.681-1.186,0.629-2.039c-0.074-1.123-0.654-2.452-2.984-2.452
		c0,0-0.013,0-0.024,0c-8.008,0.011-16.012,0.011-24.02,0c-2.474,0-2.928,1.57-2.973,2.504c-0.041,0.836,0.171,1.507,0.634,1.994
		C692.769,12.728,693.554,13.003,694.585,13.009z"/>
	
		<linearGradient id="SVGID_19_" gradientUnits="userSpaceOnUse" x1="5802.3999" y1="-215.0777" x2="6221.6963" y2="511.1648" gradientTransform="matrix(-1 0 0 -1 6582.7393 117.3764)">
		<stop  offset="0" style="stop-color:#A9D6A8"/>
		<stop  offset="0.0081" style="stop-color:#A5D5A9"/>
		<stop  offset="0.1073" style="stop-color:#7FCFB6"/>
		<stop  offset="0.2137" style="stop-color:#5DCAC0"/>
		<stop  offset="0.327" style="stop-color:#42C6C9"/>
		<stop  offset="0.4497" style="stop-color:#2DC2D0"/>
		<stop  offset="0.5864" style="stop-color:#1EC0D4"/>
		<stop  offset="0.7485" style="stop-color:#16BED7"/>
		<stop  offset="1" style="stop-color:#13BED8"/>
	</linearGradient>
	<path fill="url(#SVGID_19_)" d="M615.217,7.446c-1.782-0.178-2.899,0.922-3.152,2.911c-0.069,0.55-0.069,1.111-0.069,1.667
		l-0.045,24.537c0,1.874-0.555,3.598-1.661,5.116c-2.276,3.162-6.612,4.388-10.788,3.094c-3.427-1.071-5.833-4.44-5.86-8.187
		c-0.058-7.906-0.042-15.806-0.031-23.712l0.006-1.581c0.006-0.871,0.013-3.523-2.795-3.879c-0.789-0.109-1.478,0.103-2.029,0.59
		c-0.755,0.67-1.156,1.799-1.156,3.265c-0.006,7.883-0.006,15.766,0,23.655c0,9.097,4.438,14.346,13.204,15.6
		c0.784,0.109,1.577,0.166,2.355,0.166c3.683,0,7.201-1.249,9.9-3.563c3.06-2.618,4.772-6.416,4.818-10.696
		c0.028-2.761,0.024-5.523,0.013-8.278l-0.006-3.128h0.011l-0.005-4.612c-0.006-3.225-0.013-6.457,0.021-9.688
		C617.972,8.815,616.975,7.618,615.217,7.446z"/>
	
		<linearGradient id="SVGID_20_" gradientUnits="userSpaceOnUse" x1="5474.6162" y1="-25.8319" x2="5893.9126" y2="700.4106" gradientTransform="matrix(-1 0 0 -1 6582.7393 117.3764)">
		<stop  offset="0" style="stop-color:#A9D6A8"/>
		<stop  offset="0.0081" style="stop-color:#A5D5A9"/>
		<stop  offset="0.1073" style="stop-color:#7FCFB6"/>
		<stop  offset="0.2137" style="stop-color:#5DCAC0"/>
		<stop  offset="0.327" style="stop-color:#42C6C9"/>
		<stop  offset="0.4497" style="stop-color:#2DC2D0"/>
		<stop  offset="0.5864" style="stop-color:#1EC0D4"/>
		<stop  offset="0.7485" style="stop-color:#16BED7"/>
		<stop  offset="1" style="stop-color:#13BED8"/>
	</linearGradient>
	<path fill="url(#SVGID_20_)" d="M1054.932,24.73h0.011l-0.004-4.744c-0.007-3.11-0.018-6.233,0.016-9.35
		c0.023-1.891-1.003-3.065-2.8-3.22c-1.651-0.063-2.797,0.894-3.055,2.773c-0.085,0.653-0.085,1.306-0.085,1.942l-0.052,24.474
		c-0.007,1.856-0.573,3.575-1.69,5.099c-2.31,3.168-6.658,4.394-10.817,3.037c-3.391-1.095-5.773-4.486-5.804-8.244
		c-0.061-8.29-0.04-16.723-0.016-24.881c0-1.369,0-3.913-2.876-4.223c-0.733-0.074-1.433,0.121-1.959,0.59
		c-0.762,0.687-1.152,1.873-1.152,3.535c-0.006,7.815-0.006,15.629,0,23.443c0,8.989,4.59,14.368,13.273,15.554
		c0.757,0.103,1.514,0.155,2.264,0.155c3.701,0,7.224-1.249,9.921-3.558c3.026-2.589,4.735-6.336,4.808-10.558
		c0.058-2.911,0.04-5.815,0.029-8.725L1054.932,24.73z"/>
	
		<linearGradient id="SVGID_21_" gradientUnits="userSpaceOnUse" x1="5687.8784" y1="-148.9588" x2="6107.1748" y2="577.2838" gradientTransform="matrix(-1 0 0 -1 6582.7393 117.3764)">
		<stop  offset="0" style="stop-color:#A9D6A8"/>
		<stop  offset="0.0081" style="stop-color:#A5D5A9"/>
		<stop  offset="0.1073" style="stop-color:#7FCFB6"/>
		<stop  offset="0.2137" style="stop-color:#5DCAC0"/>
		<stop  offset="0.327" style="stop-color:#42C6C9"/>
		<stop  offset="0.4497" style="stop-color:#2DC2D0"/>
		<stop  offset="0.5864" style="stop-color:#1EC0D4"/>
		<stop  offset="0.7485" style="stop-color:#16BED7"/>
		<stop  offset="1" style="stop-color:#13BED8"/>
	</linearGradient>
	<path fill="url(#SVGID_21_)" d="M772.917,22.45c-0.428-8.467-4.604-13.486-12.415-14.906c-4.209-0.762-8.604,0.206-11.966,2.681
		c-3.102,2.286-5.048,5.58-5.496,9.269c-0.423,3.546-0.389,7.127-0.355,10.587c0.018,1.352,0.029,2.704,0.018,4.062
		c-0.018,1.747,0.056,4.039,0.755,6.302c1.816,5.855,6.044,9.269,12.576,10.14c0.642,0.086,1.283,0.126,1.919,0.126
		c6.674,0,12.976-4.555,14.3-10.661c0.75-3.478,0.721-6.995,0.688-10.398l-0.007-0.791c0-0.664,0.013-1.329,0.018-1.994
		C772.975,25.423,772.992,23.928,772.917,22.45z M766.982,32.017c-0.005,1.879-0.018,3.821-0.339,5.74
		c-0.726,4.371-4.106,7.356-8.415,7.43c-0.079,0-0.16,0-0.234,0c-4.858,0-8.25-2.658-8.875-6.978
		c-0.906-6.245-0.893-12.569,0.034-18.808c0.568-3.856,4.222-6.623,8.749-6.623c0,0,0.041,0,0.074,0
		c4.332,0.052,7.958,2.985,8.622,6.978c0.402,2.395,0.415,4.818,0.418,7.379c0.007,0.716,0.007,1.444,0.018,2.137
		C766.993,30.161,766.989,31.078,766.982,32.017z"/>
	
		<linearGradient id="SVGID_22_" gradientUnits="userSpaceOnUse" x1="5708.25" y1="-160.7203" x2="6127.5464" y2="565.5222" gradientTransform="matrix(-1 0 0 -1 6582.7393 117.3764)">
		<stop  offset="0" style="stop-color:#A9D6A8"/>
		<stop  offset="0.0081" style="stop-color:#A5D5A9"/>
		<stop  offset="0.1073" style="stop-color:#7FCFB6"/>
		<stop  offset="0.2137" style="stop-color:#5DCAC0"/>
		<stop  offset="0.327" style="stop-color:#42C6C9"/>
		<stop  offset="0.4497" style="stop-color:#2DC2D0"/>
		<stop  offset="0.5864" style="stop-color:#1EC0D4"/>
		<stop  offset="0.7485" style="stop-color:#16BED7"/>
		<stop  offset="1" style="stop-color:#13BED8"/>
	</linearGradient>
	<path fill="url(#SVGID_22_)" d="M733.581,29.107c0.007-5.958,0.007-11.916,0-17.874v-0.224c0.007-0.917,0.018-2.183-1.156-2.985
		c-1.014-0.688-2.011-0.791-3.049-0.298c-1.677,0.831-1.677,2.412-1.677,3.46c-0.036,11.853-0.047,23.701-0.029,35.549
		c0,2.503,1.002,3.769,2.978,3.769c0.876,0,1.575-0.252,2.069-0.75c0.784-0.785,0.881-2.005,0.876-2.979
		c-0.023-4.205-0.016-8.41-0.016-12.615L733.581,29.107z"/>
	
		<linearGradient id="SVGID_23_" gradientUnits="userSpaceOnUse" x1="6004.3857" y1="-331.6943" x2="6423.6821" y2="394.5482" gradientTransform="matrix(-1 0 0 -1 6582.7393 117.3764)">
		<stop  offset="0" style="stop-color:#A9D6A8"/>
		<stop  offset="0.0081" style="stop-color:#A5D5A9"/>
		<stop  offset="0.1073" style="stop-color:#7FCFB6"/>
		<stop  offset="0.2137" style="stop-color:#5DCAC0"/>
		<stop  offset="0.327" style="stop-color:#42C6C9"/>
		<stop  offset="0.4497" style="stop-color:#2DC2D0"/>
		<stop  offset="0.5864" style="stop-color:#1EC0D4"/>
		<stop  offset="0.7485" style="stop-color:#16BED7"/>
		<stop  offset="1" style="stop-color:#13BED8"/>
	</linearGradient>
	<path fill="url(#SVGID_23_)" d="M325.793,50.487c0.063,0,0.121-0.006,0.184-0.006c1.514-0.069,2.503-0.888,2.721-2.257
		c0.108-0.653,0.103-1.3,0.103-1.925l0.011-3.415c0.011-3.334,0.024-6.668-0.04-9.997c-0.011-0.659,0.105-0.785,0.119-0.796
		c0,0,0.098-0.115,0.797-0.057c1.512,0.103,3.06,0.217,4.59-0.035c2.411-0.384,3.694,0.39,5.023,2.991
		c1.57,3.082,3.341,6.113,5.055,9.04c0.87,1.496,1.74,2.985,2.594,4.492c0.58,1.026,1.296,1.656,2.126,1.873
		c0.717,0.195,1.478,0.069,2.251-0.401c0.888-0.527,2.166-1.799,0.728-4.406l-8.147-14.265c2.95-0.853,5.01-2.251,6.428-4.348
		c2.728-4.039,3.02-8.524,0.842-12.964c-1.919-3.919-5.544-6.09-10.484-6.285c-3.02-0.12-6.107-0.098-9.082-0.075
		c-1.293,0.006-2.56,0.029-3.899,0.017c-4.212,0-4.795,0.579-4.802,4.772c-0.011,11.309-0.011,22.617-0.007,33.927
		c0,0.905,0.092,1.616,0.287,2.24C323.547,49.777,324.54,50.487,325.793,50.487z M328.813,21.533l-0.007-1.816l0.007-1.794
		c0.011-1.466,0.018-2.933-0.023-4.394c-0.011-0.395,0.016-0.51,0.016-0.51c0.007-0.006,0.083-0.046,0.442-0.034
		c1.507,0.057,3.02,0.034,4.514,0.023c2.305-0.029,4.642-0.057,6.927,0.201c3.827,0.441,5.975,2.962,5.894,6.932
		c-0.068,3.747-2.499,6.267-6.193,6.428c-1.478,0.063-2.984,0.08-4.474,0.08c-1.496,0-2.962-0.023-4.422-0.017
		c-0.728,0-1.456,0.006-2.177,0.017c-0.303,0-0.487-0.046-0.487-0.046c-0.007-0.012-0.058-0.115-0.045-0.487
		C328.837,24.587,328.824,23.063,328.813,21.533z"/>
	
		<linearGradient id="SVGID_24_" gradientUnits="userSpaceOnUse" x1="5949.5327" y1="-300.0248" x2="6368.8291" y2="426.2177" gradientTransform="matrix(-1 0 0 -1 6582.7393 117.3764)">
		<stop  offset="0" style="stop-color:#A9D6A8"/>
		<stop  offset="0.0081" style="stop-color:#A5D5A9"/>
		<stop  offset="0.1073" style="stop-color:#7FCFB6"/>
		<stop  offset="0.2137" style="stop-color:#5DCAC0"/>
		<stop  offset="0.327" style="stop-color:#42C6C9"/>
		<stop  offset="0.4497" style="stop-color:#2DC2D0"/>
		<stop  offset="0.5864" style="stop-color:#1EC0D4"/>
		<stop  offset="0.7485" style="stop-color:#16BED7"/>
		<stop  offset="1" style="stop-color:#13BED8"/>
	</linearGradient>
	<path fill="url(#SVGID_24_)" d="M413.402,7.703c-2.997-0.052-6.01-0.04-9.029-0.04l-3.918,0.006c-3.599,0-4.285,0.671-4.309,4.222
		c-0.023,3.907-0.016,7.814-0.013,11.721l-0.027,9.745c-0.007,4.417-0.007,8.828,0.013,13.245c0.005,1.472,0.371,2.555,1.093,3.226
		c0.478,0.435,1.088,0.665,1.788,0.665c0.081,0,0.167,0,0.252-0.006c2.818-0.223,2.802-2.664,2.789-3.838
		c-0.016-2.372-0.016-4.738-0.01-7.104l0.005-3.162c0-2.956,0-2.956,3.007-2.991c0.994-0.034,2.001,0.006,3.002,0.034
		c2.745,0.069,5.61,0.126,8.417-0.584c6.215-1.587,10.129-7.482,9.3-14.019C424.929,12.287,419.968,7.818,413.402,7.703z
		 M413.636,27.795c-1.587,0.092-3.197,0.114-4.789,0.114c-1.49-0.005-2.957-0.028-4.422-0.023c-0.683,0-1.364,0.006-2.046,0.017
		c-0.01,0-0.029,0-0.029,0c-0.216,0-0.292-0.017-0.292-0.017c-0.011-0.04-0.039-0.161-0.034-0.493
		c0.023-1.667,0.016-3.329,0.016-5.001l-0.005-3.735c0-1.747,0-3.495-0.005-5.271c0-0.16-0.011-0.355-0.07-0.378
		c0,0,0.079-0.012,0.236-0.017c1.501,0.051,3.025,0.04,4.492,0.005c2.411-0.034,4.91-0.086,7.321,0.258
		c3.849,0.545,5.918,3.3,5.81,7.746C419.722,24.811,417.184,27.606,413.636,27.795z"/>
	
		<linearGradient id="SVGID_25_" gradientUnits="userSpaceOnUse" x1="6081.4746" y1="-376.2017" x2="6500.771" y2="350.0408" gradientTransform="matrix(-1 0 0 -1 6582.7393 117.3764)">
		<stop  offset="0" style="stop-color:#A9D6A8"/>
		<stop  offset="0.0081" style="stop-color:#A5D5A9"/>
		<stop  offset="0.1073" style="stop-color:#7FCFB6"/>
		<stop  offset="0.2137" style="stop-color:#5DCAC0"/>
		<stop  offset="0.327" style="stop-color:#42C6C9"/>
		<stop  offset="0.4497" style="stop-color:#2DC2D0"/>
		<stop  offset="0.5864" style="stop-color:#1EC0D4"/>
		<stop  offset="0.7485" style="stop-color:#16BED7"/>
		<stop  offset="1" style="stop-color:#13BED8"/>
	</linearGradient>
	<path fill="url(#SVGID_25_)" d="M215.034,12.986c0.822,0,1.64,0.011,2.466,0.023c1.753,0.023,3.58,0.052,5.373-0.04
		c0.728-0.046,0.928,0.057,0.991,0.12c0.069,0.063,0.179,0.286,0.173,1.043c-0.058,8.067-0.052,16.133-0.045,24.199l0.003,7.637
		l-0.003,0.464c-0.013,0.499-0.018,1.003,0.052,1.49c0.229,1.605,1.356,2.601,2.95,2.601c1.58,0,2.703-1.008,2.933-2.63
		c0.063-0.447,0.056-0.905,0.052-1.364l-0.007-0.384l0.018-20.206c0.016-3.815,0.034-7.762-0.063-11.641
		c-0.018-0.796,0.103-1.077,0.2-1.18c0.144-0.138,0.544-0.212,1.202-0.149c1.816,0.098,3.643,0.074,5.404,0.046
		c0.744-0.011,1.488-0.023,2.24-0.023c1.064-0.006,1.832-0.27,2.353-0.803c0.458-0.475,0.683-1.122,0.66-1.942
		c-0.052-1.713-1.101-2.584-3.112-2.584c-7.939,0.023-15.886,0.017-23.815,0.006h-0.024c-2.495,0-3.047,1.432-3.063,2.641
		c-0.011,0.79,0.218,1.426,0.672,1.89C213.168,12.728,213.948,12.986,215.034,12.986z"/>
	
		<linearGradient id="SVGID_26_" gradientUnits="userSpaceOnUse" x1="6188.8945" y1="-438.2204" x2="6608.1904" y2="288.0222" gradientTransform="matrix(-1 0 0 -1 6582.7393 117.3764)">
		<stop  offset="0" style="stop-color:#A9D6A8"/>
		<stop  offset="0.0081" style="stop-color:#A5D5A9"/>
		<stop  offset="0.1073" style="stop-color:#7FCFB6"/>
		<stop  offset="0.2137" style="stop-color:#5DCAC0"/>
		<stop  offset="0.327" style="stop-color:#42C6C9"/>
		<stop  offset="0.4497" style="stop-color:#2DC2D0"/>
		<stop  offset="0.5864" style="stop-color:#1EC0D4"/>
		<stop  offset="0.7485" style="stop-color:#16BED7"/>
		<stop  offset="1" style="stop-color:#13BED8"/>
	</linearGradient>
	<path fill="url(#SVGID_26_)" d="M84.197,26.266l-2.355-4.715c-2.006-4.016-4.011-8.027-6.038-12.031
		c-0.425-0.853-0.991-1.759-1.948-2.062c-0.654-0.212-1.34-0.098-2.08,0.309c-2.45,1.329-1.328,3.552-0.955,4.285
		c0.842,1.656,1.666,3.317,2.498,4.978l1.425,2.859c0.654,1.312,1.369,2.601,2.087,3.896c1.573,2.824,3.196,5.746,4.061,8.788
		c0.83,2.916,0.665,6.004,0.488,9.269c-0.087,1.587-0.177,3.231-0.137,4.835c0.034,1.535,0.418,2.636,1.144,3.277
		c0.449,0.39,1.01,0.59,1.645,0.59c0.115,0,0.229-0.006,0.344-0.017c2.894-0.31,2.865-2.968,2.854-3.839
		c-0.018-2.051-0.018-4.102-0.013-6.153c0.006-2.057,0.006-4.113-0.01-6.17c-0.007-1.026,0.194-1.879,0.647-2.767
		c2.388-4.675,4.721-9.378,7.051-14.088l1.135-2.291c0.665-1.341,1.272-2.71,1.88-4.085c0.434-0.985,0.549-2.383-1.359-3.42
		c-0.888-0.487-2.205-0.716-3.396,0.905c-0.402,0.544-0.694,1.14-0.975,1.713l-0.171,0.349c-2.264,4.492-4.516,8.989-6.801,13.543
		L84.197,26.266z"/>
	
		<linearGradient id="SVGID_27_" gradientUnits="userSpaceOnUse" x1="6110.5718" y1="-393.0008" x2="6529.8682" y2="333.2417" gradientTransform="matrix(-1 0 0 -1 6582.7393 117.3764)">
		<stop  offset="0" style="stop-color:#A9D6A8"/>
		<stop  offset="0.0081" style="stop-color:#A5D5A9"/>
		<stop  offset="0.1073" style="stop-color:#7FCFB6"/>
		<stop  offset="0.2137" style="stop-color:#5DCAC0"/>
		<stop  offset="0.327" style="stop-color:#42C6C9"/>
		<stop  offset="0.4497" style="stop-color:#2DC2D0"/>
		<stop  offset="0.5864" style="stop-color:#1EC0D4"/>
		<stop  offset="0.7485" style="stop-color:#16BED7"/>
		<stop  offset="1" style="stop-color:#13BED8"/>
	</linearGradient>
	<path fill="url(#SVGID_27_)" d="M184.947,10.207c-3.092,2.286-5.04,5.58-5.483,9.27c-0.424,3.546-0.389,7.127-0.355,10.587
		c0.018,1.352,0.029,2.704,0.018,4.056c-0.018,1.748,0.057,4.045,0.755,6.302c1.811,5.855,6.044,9.269,12.583,10.141
		c0.634,0.086,1.272,0.126,1.906,0.126c6.675,0,12.983-4.56,14.306-10.673c0.75-3.478,0.723-6.996,0.689-10.398l-0.007-0.791
		c0-0.664,0.01-1.329,0.016-1.994c0.024-1.444,0.039-2.939-0.034-4.417c-0.429-8.347-4.726-13.503-12.421-14.901
		C192.654,6.747,188.311,7.727,184.947,10.207z M202.954,19.551c0.825,6.158,0.831,12.432,0.018,18.642
		c-0.521,4.016-4.119,6.944-8.561,6.972c-0.027,0-0.052,0-0.079,0c-4.543,0-8.003-2.681-8.823-6.852
		c-0.4-2.005-0.429-4.011-0.458-6.125c-0.018-1.151-0.034-2.303-0.11-3.363c0.07-1.071,0.087-2.154,0.104-3.237
		c0.035-1.988,0.071-4.039,0.465-6.027c0.795-4.068,4.308-6.8,8.738-6.806h0.01C198.703,12.757,202.437,15.678,202.954,19.551z"/>
	
		<linearGradient id="SVGID_28_" gradientUnits="userSpaceOnUse" x1="6168.6577" y1="-426.5369" x2="6587.9541" y2="299.7057" gradientTransform="matrix(-1 0 0 -1 6582.7393 117.3764)">
		<stop  offset="0" style="stop-color:#A9D6A8"/>
		<stop  offset="0.0081" style="stop-color:#A5D5A9"/>
		<stop  offset="0.1073" style="stop-color:#7FCFB6"/>
		<stop  offset="0.2137" style="stop-color:#5DCAC0"/>
		<stop  offset="0.327" style="stop-color:#42C6C9"/>
		<stop  offset="0.4497" style="stop-color:#2DC2D0"/>
		<stop  offset="0.5864" style="stop-color:#1EC0D4"/>
		<stop  offset="0.7485" style="stop-color:#16BED7"/>
		<stop  offset="1" style="stop-color:#13BED8"/>
	</linearGradient>
	<path fill="url(#SVGID_28_)" d="M109.6,48.901c2.464,1.237,4.95,1.856,7.402,1.856c2.849,0,5.65-0.836,8.307-2.509
		c3.036-1.908,5.065-4.767,5.867-8.261c0.438-1.902-0.194-3.271-1.729-3.764c-1.703-0.562-3.125,0.201-3.79,2.005
		c-0.124,0.344-0.281,0.676-0.432,1.008c-0.098,0.207-0.197,0.418-0.287,0.625c-1.685,3.924-4.927,5.717-9.493,5.27
		c-3.69-0.389-6.68-3.288-7.276-7.052c-0.878-5.609-0.613-11.361-0.242-17.25c0.116-1.85,0.781-3.529,1.979-4.996
		c1.948-2.383,5.355-3.54,8.586-2.985c1.863,0.326,5.22,1.518,6.789,5.924c0.523,1.472,1.278,3.747,4.08,2.956
		c0.733-0.201,1.29-0.648,1.615-1.295c0.487-0.974,0.411-2.326-0.211-3.913c-2.052-5.196-5.867-8.255-11.333-9.081
		c-4.416-0.642-8.673,0.372-11.99,2.922c-3.026,2.32-4.921,5.609-5.339,9.258c-0.253,2.194-0.258,4.4-0.258,6.526
		c0,0.922,0,1.839-0.023,2.778c0,0.727-0.006,1.461-0.011,2.189c-0.016,1.604-0.029,3.214,0.022,4.818
		C102.038,42.06,104.65,46.426,109.6,48.901z"/>
	
		<linearGradient id="SVGID_29_" gradientUnits="userSpaceOnUse" x1="6029.709" y1="-346.3146" x2="6449.0054" y2="379.9279" gradientTransform="matrix(-1 0 0 -1 6582.7393 117.3764)">
		<stop  offset="0" style="stop-color:#A9D6A8"/>
		<stop  offset="0.0081" style="stop-color:#A5D5A9"/>
		<stop  offset="0.1073" style="stop-color:#7FCFB6"/>
		<stop  offset="0.2137" style="stop-color:#5DCAC0"/>
		<stop  offset="0.327" style="stop-color:#42C6C9"/>
		<stop  offset="0.4497" style="stop-color:#2DC2D0"/>
		<stop  offset="0.5864" style="stop-color:#1EC0D4"/>
		<stop  offset="0.7485" style="stop-color:#16BED7"/>
		<stop  offset="1" style="stop-color:#13BED8"/>
	</linearGradient>
	<path fill="url(#SVGID_29_)" d="M292.527,7.669c-3.439,0.006-4.136,0.705-4.166,4.165c-0.023,3.913-0.018,7.826-0.011,11.738
		l0.005,5.328l-0.005,4.996c-0.006,4.159-0.011,8.324,0.023,12.483c0.035,3.146,0.825,3.913,4.032,3.919h17.887l0.699,0.006
		c0.234,0,0.47,0,0.71,0c0.362,0,0.723,0,1.078-0.017c2.303-0.081,2.739-1.576,2.795-2.458c0.108-1.661-0.843-2.715-2.618-2.882
		c-0.705-0.069-1.417-0.097-2.121-0.097l-3.745-0.006c-3.967-0.011-7.924-0.023-11.89,0.028c-0.607-0.011-0.83-0.086-0.864-0.126
		c-0.035-0.028-0.139-0.183-0.121-0.808c0.108-4.222,0.103-8.003-0.007-11.549c-0.024-0.671,0.099-0.825,0.121-0.854
		c0.063-0.063,0.236-0.132,0.98-0.126c2.595,0.052,5.202,0.052,7.808,0.034c1.988-0.006,3.975-0.011,5.963,0.012
		c0.034,0,0.065,0,0.099,0c2.829,0,3.288-1.616,3.304-2.584c0.018-0.79-0.211-1.426-0.675-1.896
		c-0.579-0.59-1.443-0.859-2.786-0.848c-1.958,0.017-3.912,0.017-5.86,0.006c-2.703,0-5.418-0.017-8.118,0.04
		c-0.634,0.017-0.744-0.097-0.744-0.097s-0.103-0.109-0.085-0.745c0.103-4.17,0.097-7.883-0.007-11.349
		c-0.024-0.682,0.085-0.848,0.121-0.882c0.045-0.04,0.177-0.115,0.951-0.132c3.757,0.063,7.522,0.046,11.298,0.046l4.337-0.011
		c0.629,0,1.249-0.006,1.874-0.029c1.809-0.057,2.824-1.048,2.791-2.727c-0.018-0.956-0.423-2.572-2.912-2.572
		c-4.028-0.006-8.055,0-12.088,0L292.527,7.669z"/>
	
		<linearGradient id="SVGID_30_" gradientUnits="userSpaceOnUse" x1="5860.0371" y1="-248.3545" x2="6279.3335" y2="477.888" gradientTransform="matrix(-1 0 0 -1 6582.7393 117.3764)">
		<stop  offset="0" style="stop-color:#A9D6A8"/>
		<stop  offset="0.0081" style="stop-color:#A5D5A9"/>
		<stop  offset="0.1073" style="stop-color:#7FCFB6"/>
		<stop  offset="0.2137" style="stop-color:#5DCAC0"/>
		<stop  offset="0.327" style="stop-color:#42C6C9"/>
		<stop  offset="0.4497" style="stop-color:#2DC2D0"/>
		<stop  offset="0.5864" style="stop-color:#1EC0D4"/>
		<stop  offset="0.7485" style="stop-color:#16BED7"/>
		<stop  offset="1" style="stop-color:#13BED8"/>
	</linearGradient>
	<path fill="url(#SVGID_30_)" d="M518.838,7.698c-3.512,0-4.229,0.722-4.241,4.291c-0.021,4.068-0.016,8.13-0.016,12.191
		l0.006,4.876l-0.006,5.184c-0.005,3.896-0.005,7.786,0.013,11.681c0.016,3.701,0.715,4.4,4.375,4.406l18.917-0.006l0.402,0.006
		c0.148,0.006,0.297,0.011,0.447,0.011c0.308,0,0.623-0.017,0.946-0.086c1.38-0.298,2.142-1.208,2.142-2.567
		c0-1.426-0.762-2.383-2.097-2.612c-0.694-0.126-1.467-0.189-2.373-0.195l-2.916-0.006c-4.359-0.011-8.748-0.034-13.125,0.029
		c-0.024,0-0.074,0-0.074,0c-0.566,0-0.676-0.092-0.688-0.103c-0.011-0.012-0.108-0.132-0.098-0.75
		c0.094-4.16,0.094-7.941-0.003-11.544c-0.02-0.722,0.079-0.905,0.124-0.945c0.029-0.04,0.178-0.137,0.889-0.126
		c2.824,0.074,5.642,0.051,8.454,0.051c1.582-0.011,3.147-0.017,4.716-0.005h0.202c1.131,0,2.394,0.017,3.2-0.797
		c0.46-0.464,0.688-1.111,0.676-1.925c-0.024-2.624-2.468-2.572-3.981-2.595c-1.479-0.006-2.928-0.006-4.384-0.006
		c-2.875-0.017-5.847-0.034-8.793,0.057c-0.71,0.011-0.923-0.092-0.973-0.143c-0.076-0.074-0.155-0.315-0.131-1.043
		c0.124-4.199,0.118-7.677-0.013-10.942c-0.029-0.722,0.092-0.905,0.131-0.945c0.105-0.109,0.441-0.166,1.078-0.144
		c4.251,0.063,8.514,0.058,12.774,0.04l3.89-0.006c1.125-0.006,3.462-0.017,3.496-2.647c0.013-0.825-0.213-1.472-0.658-1.925
		c-0.699-0.71-1.759-0.767-2.779-0.767c-4.651,0.006-9.296,0.011-13.949,0.006H518.838z"/>
	
		<linearGradient id="SVGID_31_" gradientUnits="userSpaceOnUse" x1="5834.9165" y1="-233.8511" x2="6254.2124" y2="492.3914" gradientTransform="matrix(-1 0 0 -1 6582.7393 117.3764)">
		<stop  offset="0" style="stop-color:#A9D6A8"/>
		<stop  offset="0.0081" style="stop-color:#A5D5A9"/>
		<stop  offset="0.1073" style="stop-color:#7FCFB6"/>
		<stop  offset="0.2137" style="stop-color:#5DCAC0"/>
		<stop  offset="0.327" style="stop-color:#42C6C9"/>
		<stop  offset="0.4497" style="stop-color:#2DC2D0"/>
		<stop  offset="0.5864" style="stop-color:#1EC0D4"/>
		<stop  offset="0.7485" style="stop-color:#16BED7"/>
		<stop  offset="1" style="stop-color:#13BED8"/>
	</linearGradient>
	<path fill="url(#SVGID_31_)" d="M549.148,46.54c0.168,3.077,0.901,3.781,3.938,3.781l3.128,0.011
		c1.272,0.006,2.543,0.012,3.815,0.012c1.737,0,3.47-0.012,5.2-0.046c6.682-0.126,11.866-4.291,13.207-10.61
		c1.419-6.697,1.454-13.79,0.108-21.071c-1.225-6.646-6.433-10.822-13.596-10.897c-2.892-0.035-5.768-0.046-8.643-0.023h-2.878
		c-3.573,0-4.256,0.676-4.274,4.256c-0.022,4.068-0.016,8.13-0.016,12.197l0.007,21.936
		C549.145,46.237,549.145,46.386,549.148,46.54z M555.046,33.163l-0.007-4.142l0.007-4.091c0.003-3.644,0.01-7.287-0.031-10.931
		c-0.011-0.705,0.064-0.882,0.11-0.922c0.006-0.006,0.103-0.092,0.532-0.092c0.056,0,0.126,0,0.207,0.006
		c1.375,0.08,2.779,0.069,4.114,0.046c1.105-0.011,2.205-0.023,3.299,0.012c6.474,0.229,9.322,2.847,9.842,9.023
		c0.528,6.153,0.442,11.114-0.274,15.606c-0.675,4.228-3.57,6.869-7.745,7.07c-3.083,0.144-6.164,0.029-9.246,0.155
		c-0.649-0.006-0.721-0.08-0.733-0.086c-0.013-0.012-0.121-0.138-0.11-0.773C555.062,40.416,555.055,36.79,555.046,33.163z"/>
	
		<linearGradient id="SVGID_32_" gradientUnits="userSpaceOnUse" x1="5775.2725" y1="-199.4156" x2="6194.5688" y2="526.8269" gradientTransform="matrix(-1 0 0 -1 6582.7393 117.3764)">
		<stop  offset="0" style="stop-color:#A9D6A8"/>
		<stop  offset="0.0081" style="stop-color:#A5D5A9"/>
		<stop  offset="0.1073" style="stop-color:#7FCFB6"/>
		<stop  offset="0.2137" style="stop-color:#5DCAC0"/>
		<stop  offset="0.327" style="stop-color:#42C6C9"/>
		<stop  offset="0.4497" style="stop-color:#2DC2D0"/>
		<stop  offset="0.5864" style="stop-color:#1EC0D4"/>
		<stop  offset="0.7485" style="stop-color:#16BED7"/>
		<stop  offset="1" style="stop-color:#13BED8"/>
	</linearGradient>
	<path fill="url(#SVGID_32_)" d="M632.031,10.322c-3.015,2.274-4.99,5.638-5.419,9.235c-0.357,2.95-0.357,5.93-0.357,8.806
		l-0.014,2.956c-0.031,2.876-0.064,5.849,0.692,8.754c1.099,4.222,3.969,7.533,8.088,9.326c2.011,0.877,4.177,1.306,6.343,1.306
		c2.635,0,5.278-0.642,7.631-1.913c3.409-1.85,5.713-4.847,6.653-8.68c0.497-2.017-0.179-3.437-1.846-3.901
		c-1.69-0.481-3.086,0.338-3.689,2.172c-0.165,0.51-0.389,0.997-0.62,1.489l-0.141,0.31c-1.651,3.637-5.26,5.482-9.511,4.972
		c-3.57-0.441-6.464-3.242-7.201-6.978c-0.391-1.942-0.413-3.884-0.436-5.935c-0.016-1.14-0.034-2.286-0.108-3.328
		c0.074-1.089,0.086-2.189,0.095-3.289c0.024-1.976,0.055-4.016,0.46-5.981c0.746-3.547,2.962-5.838,6.416-6.617
		c3.799-0.871,6.866,0.092,9.066,2.83c0.767,0.957,1.231,2.057,1.729,3.231c0.132,0.315,0.27,0.63,0.407,0.945
		c0.573,1.3,1.672,1.965,2.979,1.885c1.088-0.092,1.959-0.756,2.326-1.776c0.31-0.882,0.287-1.856-0.069-2.904
		c-1.93-5.552-5.791-8.828-11.485-9.734C639.633,6.799,635.371,7.807,632.031,10.322z"/>
	
		<linearGradient id="SVGID_33_" gradientUnits="userSpaceOnUse" x1="5753.9492" y1="-187.1048" x2="6173.2456" y2="539.1378" gradientTransform="matrix(-1 0 0 -1 6582.7393 117.3764)">
		<stop  offset="0" style="stop-color:#A9D6A8"/>
		<stop  offset="0.0081" style="stop-color:#A5D5A9"/>
		<stop  offset="0.1073" style="stop-color:#7FCFB6"/>
		<stop  offset="0.2137" style="stop-color:#5DCAC0"/>
		<stop  offset="0.327" style="stop-color:#42C6C9"/>
		<stop  offset="0.4497" style="stop-color:#2DC2D0"/>
		<stop  offset="0.5864" style="stop-color:#1EC0D4"/>
		<stop  offset="0.7485" style="stop-color:#16BED7"/>
		<stop  offset="1" style="stop-color:#13BED8"/>
	</linearGradient>
	<path fill="url(#SVGID_33_)" d="M661.817,50.339c0.378,0.115,0.71,0.166,1.018,0.166c1.856,0,2.508-1.879,2.779-2.653
		c0.326-0.934,0.671-1.856,1.02-2.784c0.396-1.049,0.789-2.097,1.152-3.157c0.281-0.813,0.549-0.928,1.322-0.985
		c4.894,0.075,9.711,0.063,15.439,0.017c0.849,0.023,0.935,0.109,1.175,0.831c0.562,1.736,1.248,3.449,1.913,5.104
		c0.265,0.659,0.528,1.318,0.784,1.982c0.505,1.295,1.669,1.873,3.147,1.547c0.978-0.201,2.159-0.876,2.205-2.939l-0.166-0.676
		c-0.11-0.367-0.234-0.785-0.384-1.198l-3.002-8.021c-3.368-9.029-6.743-18.052-10.105-27.081c-0.389-1.049-1.117-3.002-3.231-3.048
		c-0.029,0-0.081,0-0.081,0c-2.159,0-2.858,1.879-3.328,3.128c-1.083,2.899-2.177,5.798-3.271,8.691l-3.97,10.542
		c-2.016,5.345-4.027,10.696-5.999,16.058c-0.366,0.991-0.675,2.143-0.187,3.122C660.361,49.622,660.957,50.075,661.817,50.339z
		 M676.802,17.397l6.662,18.224h-13.341L676.802,17.397z"/>
	
		<linearGradient id="SVGID_34_" gradientUnits="userSpaceOnUse" x1="5920.4849" y1="-283.2542" x2="6339.7812" y2="442.9884" gradientTransform="matrix(-1 0 0 -1 6582.7393 117.3764)">
		<stop  offset="0" style="stop-color:#A9D6A8"/>
		<stop  offset="0.0081" style="stop-color:#A5D5A9"/>
		<stop  offset="0.1073" style="stop-color:#7FCFB6"/>
		<stop  offset="0.2137" style="stop-color:#5DCAC0"/>
		<stop  offset="0.327" style="stop-color:#42C6C9"/>
		<stop  offset="0.4497" style="stop-color:#2DC2D0"/>
		<stop  offset="0.5864" style="stop-color:#1EC0D4"/>
		<stop  offset="0.7485" style="stop-color:#16BED7"/>
		<stop  offset="1" style="stop-color:#13BED8"/>
	</linearGradient>
	<path fill="url(#SVGID_34_)" d="M429.145,12.871l2.143,4.297c2.405,4.835,4.811,9.67,7.258,14.488
		c0.436,0.87,0.631,1.667,0.625,2.578c-0.018,2.469-0.018,4.933-0.011,7.402c0,1.851,0,3.695-0.006,5.546
		c-0.005,2.051,1.13,3.329,2.968,3.334h0.013c0.852,0,1.575-0.28,2.101-0.802c0.591-0.596,0.894-1.461,0.887-2.509l0.013-3.861
		c0.006-2.962,0.01-5.924-0.018-8.88c-0.013-1.094,0.2-2.011,0.686-2.968c2.808-5.517,5.552-11.063,8.296-16.614l0.963-1.948
		c0.373-0.739,0.67-1.467,0.894-2.172c0.378-1.231-0.082-2.245-1.37-3.007c-1.152-0.682-2.324-0.504-3.146,0.441
		c-0.618,0.716-1.059,1.547-1.482,2.4c-2.096,4.171-4.183,8.347-6.322,12.621l-1.522,3.048l-1.737-3.478
		c-2.045-4.102-4.045-8.101-6.049-12.094c-0.424-0.853-0.809-1.558-1.283-2.223c-0.883-1.22-2.229-1.466-3.507-0.642
		c-1.277,0.819-1.706,2.034-1.175,3.329C428.605,11.737,428.87,12.304,429.145,12.871z"/>
</g>
</svg>
